<svg xmlns="http://www.w3.org/2000/svg" viewBox="0 0 120 140" role="img" aria-label="Mechanic portrait">
  <defs>
    <filter id="noir-filter">
      <feTurbulence type="fractalNoise" baseFrequency="0.6" numOctaves="3" result="noise" />
      <feColorMatrix type="matrix" values="0 0 0 0 0  0 0 0 0 0  0 0 0 0 0  0 0 0 0.4 0" result="fadedNoise" />
      <feComposite operator="in" in="fadedNoise" in2="SourceGraphic" result="grained" />
      <feTurbulence type="turbulence" baseFrequency="0.05" numOctaves="2" result="distort" />
      <feDisplacementMap in="grained" in2="distort" scale="1.2" />
    </filter>
  </defs>
  <rect width="120" height="140" fill="#e8e4d8" />
  <g filter="url(#noir-filter)">
    <!-- Jumpsuit -->
    <path d="M10 140 L25 105 L95 105 L110 140 Z" fill="#4a544d" />
    <path d="M45 105 L60 115 L75 105" fill="#1a1d1b" />
    <!-- Head -->
    <path d="M42 85 Q42 55 60 55 T78 85 Q78 110 60 110 T42 85" fill="#1a1d1b" />
    <!-- Flat Cap -->
    <path d="M35 60 Q35 40 60 40 T85 60 L95 65 L25 65 Z" fill="#1a1d1b" />
    <path d="M25 65 L95 65 L90 70 L30 70 Z" fill="#70543e" opacity="0.8" /> <!-- Brim -->
    <!-- Features -->
    <path d="M45 100 Q48 102 52 100" fill="none" stroke="#e8e4d8" stroke-width="1.5" opacity="0.5" /> <!-- Grease smudge -->
    <line x1="53" y1="80" x2="57" y2="80" stroke="#e8e4d8" stroke-width="1.5" />
    <line x1="63" y1="80" x2="67" y2="80" stroke="#e8e4d8" stroke-width="1.5" />
  </g>
</svg>
