<svg xmlns="http://www.w3.org/2000/svg" viewBox="0 0 120 140" role="img" aria-label="Writer portrait">
  <defs>
    <filter id="noir-filter">
      <feTurbulence type="fractalNoise" baseFrequency="0.7" numOctaves="4" result="noise" />
      <feColorMatrix type="matrix" values="0 0 0 0 0  0 0 0 0 0  0 0 0 0 0  0 0 0 0.5 0" result="fadedNoise" />
      <feComposite operator="in" in="fadedNoise" in2="SourceGraphic" result="grained" />
      <feTurbulence type="turbulence" baseFrequency="0.04" numOctaves="2" result="distort" />
      <feDisplacementMap in="grained" in2="distort" scale="1.5" />
    </filter>
  </defs>
  <rect width="120" height="140" fill="#e8e4d8" />
  <g filter="url(#noir-filter)">
    <!-- Clothing: Scarf and Coat -->
    <path d="M15 140 L30 115 L90 115 L105 140 Z" fill="#1a1d1b" />
    <path d="M30 115 Q60 100 90 115 Q75 130 60 120 T30 115" fill="#70543e" /> <!-- Scarf -->
    <!-- Head -->
    <path d="M35 80 Q35 40 60 40 T85 80 Q85 110 60 110 T35 80" fill="#1a1d1b" />
    <!-- Beret -->
    <path d="M32 50 Q30 35 60 30 T88 50 L85 55 Q60 50 35 55 Z" fill="#4a544d" />
    <!-- Features -->
    <path d="M50 75 Q60 70 70 75" fill="none" stroke="#e8e4d8" stroke-width="1.5" /> <!-- Brow -->
    <path d="M52 95 Q60 100 68 95" fill="none" stroke="#e8e4d8" stroke-width="1.2" /> <!-- Mouth -->
  </g>
</svg>
