<svg xmlns="http://www.w3.org/2000/svg" viewBox="0 0 120 140" role="img" aria-label="Office worker portrait">
  <defs>
    <filter id="noir-filter">
      <feTurbulence type="fractalNoise" baseFrequency="0.6" numOctaves="3" result="noise" />
      <feColorMatrix type="matrix" values="0 0 0 0 0  0 0 0 0 0  0 0 0 0 0  0 0 0 0.4 0" result="fadedNoise" />
      <feComposite operator="in" in="fadedNoise" in2="SourceGraphic" result="grained" />
      <feTurbulence type="turbulence" baseFrequency="0.05" numOctaves="2" result="distort" />
      <feDisplacementMap in="grained" in2="distort" scale="1.2" />
    </filter>
  </defs>
  <rect width="120" height="140" fill="#e8e4d8" />
  <g filter="url(#noir-filter)">
    <!-- Clothing -->
    <path d="M15 140 L30 110 L90 110 L105 140 Z" fill="#e8e4d8" stroke="#1a1d1b" stroke-width="2" />
    <path d="M52 110 L60 120 L68 110" fill="#1a1d1b" /> <!-- Collar -->
    <path d="M57 120 L63 120 L65 140 L55 140 Z" fill="#70543e" /> <!-- Loose tie -->
    <!-- Head -->
    <path d="M38 75 Q38 45 60 45 T82 75 Q82 105 60 105 T38 75" fill="#1a1d1b" />
    <!-- Hair -->
    <path d="M38 60 Q40 35 60 35 T82 60 L78 65 Q60 55 42 65 Z" fill="#4a544d" />
    <!-- Features -->
    <circle cx="50" cy="75" r="2.5" fill="#e8e4d8" />
    <circle cx="70" cy="75" r="2.5" fill="#e8e4d8" />
    <path d="M55 90 Q60 95 65 90" fill="none" stroke="#e8e4d8" stroke-width="1.5" />
  </g>
</svg>
